<?xml version="1.0" encoding="utf-8"?>
<svg version="1.1" id="Capa_1" x="0px" y="0px" width="28.027px" height="28.028px" viewBox="0 0 28.027 28.028" style="enable-background:new 0 0 28.027 28.028;" xmlns="http://www.w3.org/2000/svg">
  <g>
    <g>
      <path d="M17.146,13.426l10.77-5.383c-0.4-1.682-1.91-2.947-3.71-2.947H3.823c-1.799,0-3.311,1.265-3.71,2.947l10.769,5.383 C12.502,14.237,15.526,14.237,17.146,13.426z" style="fill: rgb(255, 255, 255);"/>
      <path d="M17.717,14.565c-0.996,0.499-2.311,0.772-3.703,0.772s-2.707-0.274-3.703-0.772l-2.978-1.489L0,16.743v2.367 c0,2.102,1.72,3.821,3.822,3.821h20.383c2.102,0,3.822-1.72,3.822-3.821v-2.367l-7.333-3.666L17.717,14.565z" style="fill: rgb(255, 255, 255);"/>
      <polygon points="22.119,12.365 28.027,15.319 28.027,9.411 &#9;&#9;" style="fill: rgb(255, 255, 255);"/>
      <polygon points="0.001,9.41 0.001,15.319 5.909,12.365 &#9;&#9;" style="fill: rgb(255, 255, 255);"/>
    </g>
  </g>
  <g/>
  <g/>
  <g/>
  <g/>
  <g/>
  <g/>
  <g/>
  <g/>
  <g/>
  <g/>
  <g/>
  <g/>
  <g/>
  <g/>
  <g/>
</svg>